<svg xmlns="http://www.w3.org/2000/svg" width="92.952" height="203.772" viewBox="0 0 92.952 203.772">
  <g id="Group_57" data-name="Group 57" opacity="0.14">
    <circle id="Ellipse_4" data-name="Ellipse 4" cx="3.064" cy="3.064" r="3.064" transform="translate(92.952) rotate(90)" fill="#f2805b"/>
    <circle id="Ellipse_4-2" data-name="Ellipse 4" cx="3.064" cy="3.064" r="3.064" transform="translate(92.952 17.365) rotate(90)" fill="#f2805b"/>
    <circle id="Ellipse_4-3" data-name="Ellipse 4" cx="3.064" cy="3.064" r="3.064" transform="translate(92.952 34.729) rotate(90)" fill="#f2805b"/>
    <circle id="Ellipse_4-4" data-name="Ellipse 4" cx="3.064" cy="3.064" r="3.064" transform="translate(92.952 49.411) rotate(90)" fill="#f2805b"/>
    <circle id="Ellipse_4-5" data-name="Ellipse 4" cx="3.064" cy="3.064" r="3.064" transform="translate(92.952 65.881) rotate(90)" fill="#f2805b"/>
    <circle id="Ellipse_4-6" data-name="Ellipse 4" cx="3.064" cy="3.064" r="3.064" transform="translate(92.952 82.351) rotate(90)" fill="#f2805b"/>
    <circle id="Ellipse_4-7" data-name="Ellipse 4" cx="3.064" cy="3.064" r="3.064" transform="translate(92.952 98.822) rotate(90)" fill="#f2805b"/>
    <circle id="Ellipse_4-8" data-name="Ellipse 4" cx="3.064" cy="3.064" r="3.064" transform="translate(92.952 115.292) rotate(90)" fill="#f2805b"/>
    <circle id="Ellipse_4-9" data-name="Ellipse 4" cx="3.064" cy="3.064" r="3.064" transform="translate(92.952 131.762) rotate(90)" fill="#f2805b"/>
    <circle id="Ellipse_4-10" data-name="Ellipse 4" cx="3.064" cy="3.064" r="3.064" transform="translate(92.952 148.233) rotate(90)" fill="#f2805b"/>
    <circle id="Ellipse_4-11" data-name="Ellipse 4" cx="3.064" cy="3.064" r="3.064" transform="translate(92.952 162.914) rotate(90)" fill="#f2805b"/>
    <circle id="Ellipse_4-12" data-name="Ellipse 4" cx="3.064" cy="3.064" r="3.064" transform="translate(92.952 180.279) rotate(90)" fill="#f2805b"/>
    <circle id="Ellipse_4-13" data-name="Ellipse 4" cx="3.064" cy="3.064" r="3.064" transform="translate(92.952 197.644) rotate(90)" fill="#f2805b"/>
    <circle id="Ellipse_4-14" data-name="Ellipse 4" cx="3.064" cy="3.064" r="3.064" transform="translate(23.493) rotate(90)" fill="#f2805b"/>
    <circle id="Ellipse_4-15" data-name="Ellipse 4" cx="3.064" cy="3.064" r="3.064" transform="translate(23.493 17.365) rotate(90)" fill="#f2805b"/>
    <circle id="Ellipse_4-16" data-name="Ellipse 4" cx="3.064" cy="3.064" r="3.064" transform="translate(23.493 34.729) rotate(90)" fill="#f2805b"/>
    <circle id="Ellipse_4-17" data-name="Ellipse 4" cx="3.064" cy="3.064" r="3.064" transform="translate(23.493 49.411) rotate(90)" fill="#f2805b"/>
    <circle id="Ellipse_4-18" data-name="Ellipse 4" cx="3.064" cy="3.064" r="3.064" transform="translate(23.493 65.881) rotate(90)" fill="#f2805b"/>
    <circle id="Ellipse_4-19" data-name="Ellipse 4" cx="3.064" cy="3.064" r="3.064" transform="translate(23.493 82.351) rotate(90)" fill="#f2805b"/>
    <circle id="Ellipse_4-20" data-name="Ellipse 4" cx="3.064" cy="3.064" r="3.064" transform="translate(23.493 98.822) rotate(90)" fill="#f2805b"/>
    <circle id="Ellipse_4-21" data-name="Ellipse 4" cx="3.064" cy="3.064" r="3.064" transform="translate(75.587) rotate(90)" fill="#f2805b"/>
    <circle id="Ellipse_4-22" data-name="Ellipse 4" cx="3.064" cy="3.064" r="3.064" transform="translate(75.587 17.365) rotate(90)" fill="#f2805b"/>
    <circle id="Ellipse_4-23" data-name="Ellipse 4" cx="3.064" cy="3.064" r="3.064" transform="translate(75.587 34.729) rotate(90)" fill="#f2805b"/>
    <circle id="Ellipse_4-24" data-name="Ellipse 4" cx="3.064" cy="3.064" r="3.064" transform="translate(75.587 49.411) rotate(90)" fill="#f2805b"/>
    <circle id="Ellipse_4-25" data-name="Ellipse 4" cx="3.064" cy="3.064" r="3.064" transform="translate(75.587 65.881) rotate(90)" fill="#f2805b"/>
    <circle id="Ellipse_4-26" data-name="Ellipse 4" cx="3.064" cy="3.064" r="3.064" transform="translate(75.587 82.351) rotate(90)" fill="#f2805b"/>
    <circle id="Ellipse_4-27" data-name="Ellipse 4" cx="3.064" cy="3.064" r="3.064" transform="translate(75.587 98.822) rotate(90)" fill="#f2805b"/>
    <circle id="Ellipse_4-28" data-name="Ellipse 4" cx="3.064" cy="3.064" r="3.064" transform="translate(75.587 115.292) rotate(90)" fill="#f2805b"/>
    <circle id="Ellipse_4-29" data-name="Ellipse 4" cx="3.064" cy="3.064" r="3.064" transform="translate(75.587 131.762) rotate(90)" fill="#f2805b"/>
    <circle id="Ellipse_4-30" data-name="Ellipse 4" cx="3.064" cy="3.064" r="3.064" transform="translate(75.587 148.233) rotate(90)" fill="#f2805b"/>
    <circle id="Ellipse_4-31" data-name="Ellipse 4" cx="3.064" cy="3.064" r="3.064" transform="translate(75.587 162.914) rotate(90)" fill="#f2805b"/>
    <circle id="Ellipse_4-32" data-name="Ellipse 4" cx="3.064" cy="3.064" r="3.064" transform="translate(75.587 180.279) rotate(90)" fill="#f2805b"/>
    <circle id="Ellipse_4-33" data-name="Ellipse 4" cx="3.064" cy="3.064" r="3.064" transform="translate(75.587 197.644) rotate(90)" fill="#f2805b"/>
    <circle id="Ellipse_4-34" data-name="Ellipse 4" cx="3.064" cy="3.064" r="3.064" transform="translate(6.129) rotate(90)" fill="#f2805b"/>
    <circle id="Ellipse_4-35" data-name="Ellipse 4" cx="3.064" cy="3.064" r="3.064" transform="translate(6.129 17.365) rotate(90)" fill="#f2805b"/>
    <circle id="Ellipse_4-36" data-name="Ellipse 4" cx="3.064" cy="3.064" r="3.064" transform="translate(6.129 34.729) rotate(90)" fill="#f2805b"/>
    <circle id="Ellipse_4-37" data-name="Ellipse 4" cx="3.064" cy="3.064" r="3.064" transform="translate(6.129 49.411) rotate(90)" fill="#f2805b"/>
    <circle id="Ellipse_4-38" data-name="Ellipse 4" cx="3.064" cy="3.064" r="3.064" transform="translate(6.129 65.881) rotate(90)" fill="#f2805b"/>
    <circle id="Ellipse_4-39" data-name="Ellipse 4" cx="3.064" cy="3.064" r="3.064" transform="translate(6.129 82.351) rotate(90)" fill="#f2805b"/>
    <circle id="Ellipse_4-40" data-name="Ellipse 4" cx="3.064" cy="3.064" r="3.064" transform="translate(6.129 98.822) rotate(90)" fill="#f2805b"/>
    <circle id="Ellipse_4-41" data-name="Ellipse 4" cx="3.064" cy="3.064" r="3.064" transform="translate(58.223) rotate(90)" fill="#f2805b"/>
    <circle id="Ellipse_4-42" data-name="Ellipse 4" cx="3.064" cy="3.064" r="3.064" transform="translate(58.223 17.365) rotate(90)" fill="#f2805b"/>
    <circle id="Ellipse_4-43" data-name="Ellipse 4" cx="3.064" cy="3.064" r="3.064" transform="translate(58.223 34.729) rotate(90)" fill="#f2805b"/>
    <circle id="Ellipse_4-44" data-name="Ellipse 4" cx="3.064" cy="3.064" r="3.064" transform="translate(58.223 49.411) rotate(90)" fill="#f2805b"/>
    <circle id="Ellipse_4-45" data-name="Ellipse 4" cx="3.064" cy="3.064" r="3.064" transform="translate(58.223 65.881) rotate(90)" fill="#f2805b"/>
    <circle id="Ellipse_4-46" data-name="Ellipse 4" cx="3.064" cy="3.064" r="3.064" transform="translate(58.223 82.351) rotate(90)" fill="#f2805b"/>
    <circle id="Ellipse_4-47" data-name="Ellipse 4" cx="3.064" cy="3.064" r="3.064" transform="translate(58.223 98.822) rotate(90)" fill="#f2805b"/>
    <circle id="Ellipse_4-48" data-name="Ellipse 4" cx="3.064" cy="3.064" r="3.064" transform="translate(58.223 115.292) rotate(90)" fill="#f2805b"/>
    <circle id="Ellipse_4-49" data-name="Ellipse 4" cx="3.064" cy="3.064" r="3.064" transform="translate(58.223 131.762) rotate(90)" fill="#f2805b"/>
    <circle id="Ellipse_4-50" data-name="Ellipse 4" cx="3.064" cy="3.064" r="3.064" transform="translate(58.223 148.233) rotate(90)" fill="#f2805b"/>
    <circle id="Ellipse_4-51" data-name="Ellipse 4" cx="3.064" cy="3.064" r="3.064" transform="translate(58.223 162.914) rotate(90)" fill="#f2805b"/>
    <circle id="Ellipse_4-52" data-name="Ellipse 4" cx="3.064" cy="3.064" r="3.064" transform="translate(58.223 180.279) rotate(90)" fill="#f2805b"/>
    <circle id="Ellipse_4-53" data-name="Ellipse 4" cx="3.064" cy="3.064" r="3.064" transform="translate(58.223 197.644) rotate(90)" fill="#f2805b"/>
    <circle id="Ellipse_4-54" data-name="Ellipse 4" cx="3.064" cy="3.064" r="3.064" transform="translate(23.493 115.292) rotate(90)" fill="#f2805b"/>
    <circle id="Ellipse_4-55" data-name="Ellipse 4" cx="3.064" cy="3.064" r="3.064" transform="translate(23.493 131.762) rotate(90)" fill="#f2805b"/>
    <circle id="Ellipse_4-56" data-name="Ellipse 4" cx="3.064" cy="3.064" r="3.064" transform="translate(23.493 148.233) rotate(90)" fill="#f2805b"/>
    <circle id="Ellipse_4-57" data-name="Ellipse 4" cx="3.064" cy="3.064" r="3.064" transform="translate(23.493 162.914) rotate(90)" fill="#f2805b"/>
    <circle id="Ellipse_4-58" data-name="Ellipse 4" cx="3.064" cy="3.064" r="3.064" transform="translate(23.493 180.279) rotate(90)" fill="#f2805b"/>
    <circle id="Ellipse_4-59" data-name="Ellipse 4" cx="3.064" cy="3.064" r="3.064" transform="translate(23.493 197.644) rotate(90)" fill="#f2805b"/>
    <circle id="Ellipse_4-60" data-name="Ellipse 4" cx="3.064" cy="3.064" r="3.064" transform="translate(40.858) rotate(90)" fill="#f2805b"/>
    <circle id="Ellipse_4-61" data-name="Ellipse 4" cx="3.064" cy="3.064" r="3.064" transform="translate(40.858 17.365) rotate(90)" fill="#f2805b"/>
    <circle id="Ellipse_4-62" data-name="Ellipse 4" cx="3.064" cy="3.064" r="3.064" transform="translate(40.858 34.729) rotate(90)" fill="#f2805b"/>
    <circle id="Ellipse_4-63" data-name="Ellipse 4" cx="3.064" cy="3.064" r="3.064" transform="translate(40.858 49.411) rotate(90)" fill="#f2805b"/>
    <circle id="Ellipse_4-64" data-name="Ellipse 4" cx="3.064" cy="3.064" r="3.064" transform="translate(40.858 65.881) rotate(90)" fill="#f2805b"/>
    <circle id="Ellipse_4-65" data-name="Ellipse 4" cx="3.064" cy="3.064" r="3.064" transform="translate(40.858 82.351) rotate(90)" fill="#f2805b"/>
    <circle id="Ellipse_4-66" data-name="Ellipse 4" cx="3.064" cy="3.064" r="3.064" transform="translate(40.858 98.822) rotate(90)" fill="#f2805b"/>
    <circle id="Ellipse_4-67" data-name="Ellipse 4" cx="3.064" cy="3.064" r="3.064" transform="translate(40.858 115.292) rotate(90)" fill="#f2805b"/>
    <circle id="Ellipse_4-68" data-name="Ellipse 4" cx="3.064" cy="3.064" r="3.064" transform="translate(40.858 131.762) rotate(90)" fill="#f2805b"/>
    <circle id="Ellipse_4-69" data-name="Ellipse 4" cx="3.064" cy="3.064" r="3.064" transform="translate(40.858 148.233) rotate(90)" fill="#f2805b"/>
    <circle id="Ellipse_4-70" data-name="Ellipse 4" cx="3.064" cy="3.064" r="3.064" transform="translate(40.858 162.914) rotate(90)" fill="#f2805b"/>
    <circle id="Ellipse_4-71" data-name="Ellipse 4" cx="3.064" cy="3.064" r="3.064" transform="translate(40.858 180.279) rotate(90)" fill="#f2805b"/>
    <circle id="Ellipse_4-72" data-name="Ellipse 4" cx="3.064" cy="3.064" r="3.064" transform="translate(40.858 197.644) rotate(90)" fill="#f2805b"/>
    <circle id="Ellipse_4-73" data-name="Ellipse 4" cx="3.064" cy="3.064" r="3.064" transform="translate(6.129 115.292) rotate(90)" fill="#f2805b"/>
    <circle id="Ellipse_4-74" data-name="Ellipse 4" cx="3.064" cy="3.064" r="3.064" transform="translate(6.129 131.762) rotate(90)" fill="#f2805b"/>
    <circle id="Ellipse_4-75" data-name="Ellipse 4" cx="3.064" cy="3.064" r="3.064" transform="translate(6.129 148.233) rotate(90)" fill="#f2805b"/>
    <circle id="Ellipse_4-76" data-name="Ellipse 4" cx="3.064" cy="3.064" r="3.064" transform="translate(6.129 162.914) rotate(90)" fill="#f2805b"/>
    <circle id="Ellipse_4-77" data-name="Ellipse 4" cx="3.064" cy="3.064" r="3.064" transform="translate(6.129 180.279) rotate(90)" fill="#f2805b"/>
    <circle id="Ellipse_4-78" data-name="Ellipse 4" cx="3.064" cy="3.064" r="3.064" transform="translate(6.129 197.644) rotate(90)" fill="#f2805b"/>
  </g>
</svg>
